<svg width="1920" height="900" viewBox="0 0 1920 900" fill="none" xmlns="http://www.w3.org/2000/svg">
<g clip-path="url(#clip0_23_79)">
<rect width="1920" height="900" fill="black"/>
<g filter="url(#filter0_f_23_79)">
<path fill-rule="evenodd" clip-rule="evenodd" d="M404.912 499.291C473.942 468.977 549.346 459.443 625.317 455.313C741.726 448.986 882.185 407.929 964.529 468.873C1043.83 527.564 1050.06 647.554 998.411 731.447C946.333 816.034 788.71 812.946 709.348 883.352C655.498 931.125 686.427 1013.92 629.163 1059.02C567.728 1107.41 479.225 1122.42 396.95 1129.4C304.525 1137.25 216.04 1125.37 131.269 1101.3C19.1113 1069.44 -178.704 1066.55 -173.246 967.448C-166.757 849.649 44.7368 808.072 152.179 721.67C195.433 686.886 227.769 648.086 269.046 611.767C313.806 572.382 347.246 524.614 404.912 499.291Z" fill="url(#paint0_linear_23_79)"/>
</g>
<g filter="url(#filter1_f_23_79)">
<path fill-rule="evenodd" clip-rule="evenodd" d="M1778.46 559.538C1755.26 638.501 1707.17 705.177 1653.43 767.807C1571.09 863.772 1503.99 1007.32 1382.64 1020.88C1265.78 1033.94 1145.29 939.158 1103.6 829.248C1061.57 718.427 1184.3 598.164 1176.67 477.858C1171.5 396.226 1068.13 351.576 1068.13 269.501C1068.12 181.448 1120.89 100.022 1176.66 30.1088C1239.31 -48.4291 1317.99 -107.519 1405.62 -153.583C1521.56 -214.53 1674.64 -366.275 1766.09 -279.734C1874.8 -176.861 1754.22 22.4696 1755.95 177.94C1756.64 240.529 1769.5 297.945 1773.18 360.268C1777.17 427.852 1797.84 493.574 1778.46 559.538Z" fill="url(#paint1_linear_23_79)"/>
</g>
<g filter="url(#filter2_f_23_79)">
<path fill-rule="evenodd" clip-rule="evenodd" d="M339.311 345.902C305.863 373.686 265.179 389.072 223.225 401.098C158.941 419.524 87.2546 462.969 30.2751 434.485C-24.5975 407.054 -49.2043 331.675 -34.9441 272.039C-20.5658 211.909 68.528 194.356 100.729 139.848C122.578 102.863 90.6387 54.1458 114.876 18.4327C140.878 -19.8816 187.959 -40.3611 232.951 -54.9795C283.494 -71.4013 335.293 -74.8182 387.151 -70.0316C455.764 -63.6987 567.403 -86.3514 581.767 -22.7838C598.842 52.7801 487.34 105.348 442.178 173.484C423.997 200.914 412.655 229.541 395.855 257.701C377.637 288.237 367.253 322.692 339.311 345.902Z" fill="url(#paint2_linear_23_79)"/>
</g>
<g style="mix-blend-mode:color-burn">
<rect y="-0.000244141" width="53" height="903" fill="url(#paint3_linear_23_79)"/>
<rect x="53" y="-0.000244141" width="54" height="903" fill="url(#paint4_linear_23_79)"/>
<rect x="107" y="-0.000244141" width="53" height="903" fill="url(#paint5_linear_23_79)"/>
<rect x="160" y="-0.000244141" width="53" height="903" fill="url(#paint6_linear_23_79)"/>
<rect x="213" y="-0.000244141" width="54" height="903" fill="url(#paint7_linear_23_79)"/>
<rect x="267" y="-0.000244141" width="53" height="903" fill="url(#paint8_linear_23_79)"/>
<rect x="320" y="-0.000244141" width="53" height="903" fill="url(#paint9_linear_23_79)"/>
<rect x="373" y="-0.000244141" width="54" height="903" fill="url(#paint10_linear_23_79)"/>
<rect x="427" y="-0.000244141" width="53" height="903" fill="url(#paint11_linear_23_79)"/>
<rect x="480" y="-0.000244141" width="53" height="903" fill="url(#paint12_linear_23_79)"/>
<rect x="533" y="-0.000244141" width="54" height="903" fill="url(#paint13_linear_23_79)"/>
<rect x="587" y="-0.000244141" width="52" height="903" fill="url(#paint14_linear_23_79)"/>
<rect x="639" y="-0.000244141" width="53" height="903" fill="url(#paint15_linear_23_79)"/>
<rect x="692" y="-0.000244141" width="54" height="903" fill="url(#paint16_linear_23_79)"/>
<rect x="746" y="-0.000244141" width="53" height="903" fill="url(#paint17_linear_23_79)"/>
<rect x="799" y="-0.000244141" width="53" height="903" fill="url(#paint18_linear_23_79)"/>
<rect x="852" y="-0.000244141" width="54" height="903" fill="url(#paint19_linear_23_79)"/>
<rect x="906" y="-0.000244141" width="53" height="903" fill="url(#paint20_linear_23_79)"/>
<rect x="959" width="53" height="903" fill="url(#paint21_linear_23_79)"/>
<rect x="1012" width="54" height="903" fill="url(#paint22_linear_23_79)"/>
<rect x="1066" width="55" height="903" fill="url(#paint23_linear_23_79)"/>
<rect x="1121" y="-0.000244141" width="53" height="903" fill="url(#paint24_linear_23_79)"/>
<rect x="1174" y="-0.000244141" width="54" height="903" fill="url(#paint25_linear_23_79)"/>
<rect x="1228" y="-0.000244141" width="53" height="903" fill="url(#paint26_linear_23_79)"/>
<rect x="1281" y="-0.000244141" width="53" height="903" fill="url(#paint27_linear_23_79)"/>
<rect x="1334" y="-0.000244141" width="54" height="903" fill="url(#paint28_linear_23_79)"/>
<rect x="1388" y="-0.000244141" width="53" height="903" fill="url(#paint29_linear_23_79)"/>
<rect x="1441" y="-0.000244141" width="52" height="903" fill="url(#paint30_linear_23_79)"/>
<rect x="1493" y="-0.000244141" width="54" height="903" fill="url(#paint31_linear_23_79)"/>
<rect x="1547" y="-0.000244141" width="53" height="903" fill="url(#paint32_linear_23_79)"/>
<rect x="1600" y="-0.000244141" width="53" height="903" fill="url(#paint33_linear_23_79)"/>
<rect x="1653" y="-0.000244141" width="54" height="903" fill="url(#paint34_linear_23_79)"/>
<rect x="1707" y="-0.000244141" width="53" height="903" fill="url(#paint35_linear_23_79)"/>
<rect x="1760" y="-0.000244141" width="53" height="903" fill="url(#paint36_linear_23_79)"/>
<rect x="1813" y="-0.000244141" width="54" height="903" fill="url(#paint37_linear_23_79)"/>
<rect x="1867" y="-0.000244141" width="53" height="903" fill="url(#paint38_linear_23_79)"/>
</g>
</g>
<defs>
<filter id="filter0_f_23_79" x="-273.356" y="335.926" width="1405.09" height="895.882" filterUnits="userSpaceOnUse" color-interpolation-filters="sRGB">
<feFlood flood-opacity="0" result="BackgroundImageFix"/>
<feBlend mode="normal" in="SourceGraphic" in2="BackgroundImageFix" result="shape"/>
<feGaussianBlur stdDeviation="50" result="effect1_foregroundBlur_23_79"/>
</filter>
<filter id="filter1_f_23_79" x="968.128" y="-405.781" width="943.432" height="1527.87" filterUnits="userSpaceOnUse" color-interpolation-filters="sRGB">
<feFlood flood-opacity="0" result="BackgroundImageFix"/>
<feBlend mode="normal" in="SourceGraphic" in2="BackgroundImageFix" result="shape"/>
<feGaussianBlur stdDeviation="50" result="effect1_foregroundBlur_23_79"/>
</filter>
<filter id="filter2_f_23_79" x="-138.923" y="-172.02" width="822.452" height="715.927" filterUnits="userSpaceOnUse" color-interpolation-filters="sRGB">
<feFlood flood-opacity="0" result="BackgroundImageFix"/>
<feBlend mode="normal" in="SourceGraphic" in2="BackgroundImageFix" result="shape"/>
<feGaussianBlur stdDeviation="50" result="effect1_foregroundBlur_23_79"/>
</filter>
<linearGradient id="paint0_linear_23_79" x1="545.741" y1="537.936" x2="510.596" y2="1117.66" gradientUnits="userSpaceOnUse">
<stop stop-color="#6823FF"/>
<stop offset="1" stop-color="white" stop-opacity="0"/>
</linearGradient>
<linearGradient id="paint1_linear_23_79" x1="1749" y1="737.673" x2="1151.5" y2="83.2425" gradientUnits="userSpaceOnUse">
<stop stop-color="#6823FF"/>
<stop offset="1" stop-color="white" stop-opacity="0"/>
</linearGradient>
<linearGradient id="paint2_linear_23_79" x1="269.411" y1="367.922" x2="198.562" y2="-37.9671" gradientUnits="userSpaceOnUse">
<stop stop-color="#6823FF"/>
<stop offset="1" stop-color="white" stop-opacity="0"/>
</linearGradient>
<linearGradient id="paint3_linear_23_79" x1="0" y1="451.5" x2="53" y2="451.5" gradientUnits="userSpaceOnUse">
<stop stop-color="#D9D9D9"/>
<stop offset="1" stop-color="#737373"/>
</linearGradient>
<linearGradient id="paint4_linear_23_79" x1="53" y1="451.5" x2="107" y2="451.5" gradientUnits="userSpaceOnUse">
<stop stop-color="#D9D9D9"/>
<stop offset="1" stop-color="#737373"/>
</linearGradient>
<linearGradient id="paint5_linear_23_79" x1="107" y1="451.5" x2="160" y2="451.5" gradientUnits="userSpaceOnUse">
<stop stop-color="#D9D9D9"/>
<stop offset="1" stop-color="#737373"/>
</linearGradient>
<linearGradient id="paint6_linear_23_79" x1="160" y1="451.5" x2="213" y2="451.5" gradientUnits="userSpaceOnUse">
<stop stop-color="#D9D9D9"/>
<stop offset="1" stop-color="#737373"/>
</linearGradient>
<linearGradient id="paint7_linear_23_79" x1="213" y1="451.5" x2="267" y2="451.5" gradientUnits="userSpaceOnUse">
<stop stop-color="#D9D9D9"/>
<stop offset="1" stop-color="#737373"/>
</linearGradient>
<linearGradient id="paint8_linear_23_79" x1="267" y1="451.5" x2="320" y2="451.5" gradientUnits="userSpaceOnUse">
<stop stop-color="#D9D9D9"/>
<stop offset="1" stop-color="#737373"/>
</linearGradient>
<linearGradient id="paint9_linear_23_79" x1="320" y1="451.5" x2="373" y2="451.5" gradientUnits="userSpaceOnUse">
<stop stop-color="#D9D9D9"/>
<stop offset="1" stop-color="#737373"/>
</linearGradient>
<linearGradient id="paint10_linear_23_79" x1="373" y1="451.5" x2="427" y2="451.5" gradientUnits="userSpaceOnUse">
<stop stop-color="#D9D9D9"/>
<stop offset="1" stop-color="#737373"/>
</linearGradient>
<linearGradient id="paint11_linear_23_79" x1="427" y1="451.5" x2="480" y2="451.5" gradientUnits="userSpaceOnUse">
<stop stop-color="#D9D9D9"/>
<stop offset="1" stop-color="#737373"/>
</linearGradient>
<linearGradient id="paint12_linear_23_79" x1="480" y1="451.5" x2="533" y2="451.5" gradientUnits="userSpaceOnUse">
<stop stop-color="#D9D9D9"/>
<stop offset="1" stop-color="#737373"/>
</linearGradient>
<linearGradient id="paint13_linear_23_79" x1="533" y1="451.5" x2="587" y2="451.5" gradientUnits="userSpaceOnUse">
<stop stop-color="#D9D9D9"/>
<stop offset="1" stop-color="#737373"/>
</linearGradient>
<linearGradient id="paint14_linear_23_79" x1="587" y1="451.5" x2="639" y2="451.5" gradientUnits="userSpaceOnUse">
<stop stop-color="#D9D9D9"/>
<stop offset="1" stop-color="#737373"/>
</linearGradient>
<linearGradient id="paint15_linear_23_79" x1="639" y1="451.5" x2="692" y2="451.5" gradientUnits="userSpaceOnUse">
<stop stop-color="#D9D9D9"/>
<stop offset="1" stop-color="#737373"/>
</linearGradient>
<linearGradient id="paint16_linear_23_79" x1="692" y1="451.5" x2="746" y2="451.5" gradientUnits="userSpaceOnUse">
<stop stop-color="#D9D9D9"/>
<stop offset="1" stop-color="#737373"/>
</linearGradient>
<linearGradient id="paint17_linear_23_79" x1="746" y1="451.5" x2="799" y2="451.5" gradientUnits="userSpaceOnUse">
<stop stop-color="#D9D9D9"/>
<stop offset="1" stop-color="#737373"/>
</linearGradient>
<linearGradient id="paint18_linear_23_79" x1="799" y1="451.5" x2="852" y2="451.5" gradientUnits="userSpaceOnUse">
<stop stop-color="#D9D9D9"/>
<stop offset="1" stop-color="#737373"/>
</linearGradient>
<linearGradient id="paint19_linear_23_79" x1="852" y1="451.5" x2="906" y2="451.5" gradientUnits="userSpaceOnUse">
<stop stop-color="#D9D9D9"/>
<stop offset="1" stop-color="#737373"/>
</linearGradient>
<linearGradient id="paint20_linear_23_79" x1="906" y1="451.5" x2="959" y2="451.5" gradientUnits="userSpaceOnUse">
<stop stop-color="#D9D9D9"/>
<stop offset="1" stop-color="#737373"/>
</linearGradient>
<linearGradient id="paint21_linear_23_79" x1="959" y1="451.5" x2="1012" y2="451.5" gradientUnits="userSpaceOnUse">
<stop stop-color="#D9D9D9"/>
<stop offset="1" stop-color="#737373"/>
</linearGradient>
<linearGradient id="paint22_linear_23_79" x1="1012" y1="451.5" x2="1066" y2="451.5" gradientUnits="userSpaceOnUse">
<stop stop-color="#D9D9D9"/>
<stop offset="1" stop-color="#737373"/>
</linearGradient>
<linearGradient id="paint23_linear_23_79" x1="1066" y1="451.5" x2="1121" y2="451.5" gradientUnits="userSpaceOnUse">
<stop stop-color="#D9D9D9"/>
<stop offset="1" stop-color="#737373"/>
</linearGradient>
<linearGradient id="paint24_linear_23_79" x1="1121" y1="451.5" x2="1174" y2="451.5" gradientUnits="userSpaceOnUse">
<stop stop-color="#D9D9D9"/>
<stop offset="1" stop-color="#737373"/>
</linearGradient>
<linearGradient id="paint25_linear_23_79" x1="1174" y1="451.5" x2="1228" y2="451.5" gradientUnits="userSpaceOnUse">
<stop stop-color="#D9D9D9"/>
<stop offset="1" stop-color="#737373"/>
</linearGradient>
<linearGradient id="paint26_linear_23_79" x1="1228" y1="451.5" x2="1281" y2="451.5" gradientUnits="userSpaceOnUse">
<stop stop-color="#D9D9D9"/>
<stop offset="1" stop-color="#737373"/>
</linearGradient>
<linearGradient id="paint27_linear_23_79" x1="1281" y1="451.5" x2="1334" y2="451.5" gradientUnits="userSpaceOnUse">
<stop stop-color="#D9D9D9"/>
<stop offset="1" stop-color="#737373"/>
</linearGradient>
<linearGradient id="paint28_linear_23_79" x1="1334" y1="451.5" x2="1388" y2="451.5" gradientUnits="userSpaceOnUse">
<stop stop-color="#D9D9D9"/>
<stop offset="1" stop-color="#737373"/>
</linearGradient>
<linearGradient id="paint29_linear_23_79" x1="1388" y1="451.5" x2="1441" y2="451.5" gradientUnits="userSpaceOnUse">
<stop stop-color="#D9D9D9"/>
<stop offset="1" stop-color="#737373"/>
</linearGradient>
<linearGradient id="paint30_linear_23_79" x1="1441" y1="451.5" x2="1493" y2="451.5" gradientUnits="userSpaceOnUse">
<stop stop-color="#D9D9D9"/>
<stop offset="1" stop-color="#737373"/>
</linearGradient>
<linearGradient id="paint31_linear_23_79" x1="1493" y1="451.5" x2="1547" y2="451.5" gradientUnits="userSpaceOnUse">
<stop stop-color="#D9D9D9"/>
<stop offset="1" stop-color="#737373"/>
</linearGradient>
<linearGradient id="paint32_linear_23_79" x1="1547" y1="451.5" x2="1600" y2="451.5" gradientUnits="userSpaceOnUse">
<stop stop-color="#D9D9D9"/>
<stop offset="1" stop-color="#737373"/>
</linearGradient>
<linearGradient id="paint33_linear_23_79" x1="1600" y1="451.5" x2="1653" y2="451.5" gradientUnits="userSpaceOnUse">
<stop stop-color="#D9D9D9"/>
<stop offset="1" stop-color="#737373"/>
</linearGradient>
<linearGradient id="paint34_linear_23_79" x1="1653" y1="451.5" x2="1707" y2="451.5" gradientUnits="userSpaceOnUse">
<stop stop-color="#D9D9D9"/>
<stop offset="1" stop-color="#737373"/>
</linearGradient>
<linearGradient id="paint35_linear_23_79" x1="1707" y1="451.5" x2="1760" y2="451.5" gradientUnits="userSpaceOnUse">
<stop stop-color="#D9D9D9"/>
<stop offset="1" stop-color="#737373"/>
</linearGradient>
<linearGradient id="paint36_linear_23_79" x1="1760" y1="451.5" x2="1813" y2="451.5" gradientUnits="userSpaceOnUse">
<stop stop-color="#D9D9D9"/>
<stop offset="1" stop-color="#737373"/>
</linearGradient>
<linearGradient id="paint37_linear_23_79" x1="1813" y1="451.5" x2="1867" y2="451.5" gradientUnits="userSpaceOnUse">
<stop stop-color="#D9D9D9"/>
<stop offset="1" stop-color="#737373"/>
</linearGradient>
<linearGradient id="paint38_linear_23_79" x1="1867" y1="451.5" x2="1920" y2="451.5" gradientUnits="userSpaceOnUse">
<stop stop-color="#D9D9D9"/>
<stop offset="1" stop-color="#737373"/>
</linearGradient>
<clipPath id="clip0_23_79">
<rect width="1920" height="900" fill="white"/>
</clipPath>
</defs>
</svg>
