<svg width="1440" height="787" viewBox="0 0 1440 787" fill="none" xmlns="http://www.w3.org/2000/svg">
<g clip-path="url(#clip0_46_48)">
<rect width="1440" height="787" fill="black"/>
<g filter="url(#filter0_f_46_48)">
<path fill-rule="evenodd" clip-rule="evenodd" d="M320.352 337.305C379.627 311.275 444.375 303.088 509.611 299.542C609.57 294.109 730.18 258.854 800.887 311.186C868.98 361.583 874.332 464.616 829.981 536.654C785.263 609.288 649.914 606.636 581.767 667.093C535.527 708.115 562.086 779.211 512.913 817.94C460.16 859.49 384.164 872.375 313.515 878.373C234.151 885.111 158.171 874.913 85.3796 854.238C-10.9289 826.883 -180.79 824.399 -176.103 739.305C-170.532 638.152 11.0754 602.451 103.334 528.259C140.476 498.39 168.243 465.073 203.686 433.886C242.121 400.067 270.835 359.05 320.352 337.305Z" fill="url(#paint0_linear_46_48)"/>
</g>
<g filter="url(#filter1_f_46_48)">
<path fill-rule="evenodd" clip-rule="evenodd" d="M1499.8 389.038C1479.87 456.843 1438.58 514.096 1392.44 567.875C1321.74 650.28 1264.11 773.54 1159.91 785.184C1059.56 796.397 956.104 715.012 920.306 620.634C884.213 525.474 989.6 422.205 983.053 318.901C978.611 248.804 889.849 210.464 889.846 139.988C889.843 64.3779 935.15 -5.54148 983.039 -65.5749C1036.83 -133.014 1104.4 -183.754 1179.64 -223.309C1279.2 -275.642 1410.65 -405.944 1489.17 -331.632C1582.52 -243.297 1478.99 -72.1345 1480.47 61.3652C1481.06 115.109 1492.11 164.412 1495.26 217.928C1498.69 275.961 1516.44 332.396 1499.8 389.038Z" fill="url(#paint1_linear_46_48)"/>
</g>
<g filter="url(#filter2_f_46_48)">
<path fill-rule="evenodd" clip-rule="evenodd" d="M264.022 205.592C235.3 229.45 200.366 242.662 164.341 252.988C109.141 268.81 47.5847 306.116 -1.34274 281.657C-48.4611 258.103 -69.5905 193.376 -57.3455 142.167C-44.9991 90.5345 31.5045 75.4617 59.1548 28.657C77.9164 -3.10171 50.4906 -44.9346 71.3027 -75.6009C93.6307 -108.501 134.058 -126.086 172.692 -138.639C216.093 -152.74 260.571 -155.674 305.102 -151.564C364.018 -146.126 459.881 -165.577 472.215 -110.993C486.877 -46.1073 391.132 -0.967826 352.352 57.5392C336.741 81.0929 327.002 105.675 312.575 129.855C296.931 156.076 288.015 185.662 264.022 205.592Z" fill="url(#paint2_linear_46_48)"/>
</g>
<g style="mix-blend-mode:color-burn">
<rect y="0.000244141" width="40" height="787" fill="url(#paint3_linear_46_48)"/>
<rect x="40" y="0.000244141" width="40" height="787" fill="url(#paint4_linear_46_48)"/>
<rect x="80" y="0.000244141" width="40" height="787" fill="url(#paint5_linear_46_48)"/>
<rect x="120" y="0.000244141" width="40" height="787" fill="url(#paint6_linear_46_48)"/>
<rect x="160" y="0.000244141" width="40" height="787" fill="url(#paint7_linear_46_48)"/>
<rect x="200" y="0.000244141" width="40" height="787" fill="url(#paint8_linear_46_48)"/>
<rect x="240" y="0.000244141" width="40" height="787" fill="url(#paint9_linear_46_48)"/>
<rect x="280" y="0.000244141" width="40" height="787" fill="url(#paint10_linear_46_48)"/>
<rect x="320" y="0.000244141" width="40" height="787" fill="url(#paint11_linear_46_48)"/>
<rect x="360" y="0.000244141" width="40" height="787" fill="url(#paint12_linear_46_48)"/>
<rect x="400" y="0.000244141" width="40" height="787" fill="url(#paint13_linear_46_48)"/>
<rect x="440" y="0.000244141" width="40" height="787" fill="url(#paint14_linear_46_48)"/>
<rect x="480" y="0.000244141" width="40" height="787" fill="url(#paint15_linear_46_48)"/>
<rect x="520" y="0.000244141" width="40" height="787" fill="url(#paint16_linear_46_48)"/>
<rect x="560" y="0.000244141" width="40" height="787" fill="url(#paint17_linear_46_48)"/>
<rect x="600" y="0.000244141" width="40" height="787" fill="url(#paint18_linear_46_48)"/>
<rect x="640" y="0.000244141" width="40" height="787" fill="url(#paint19_linear_46_48)"/>
<rect x="680" y="0.000244141" width="40" height="787" fill="url(#paint20_linear_46_48)"/>
<rect x="720" y="0.000244141" width="40" height="787" fill="url(#paint21_linear_46_48)"/>
<rect x="760" y="0.000244141" width="40" height="787" fill="url(#paint22_linear_46_48)"/>
<rect x="800" y="0.000244141" width="40" height="787" fill="url(#paint23_linear_46_48)"/>
<rect x="840" y="0.000244141" width="40" height="787" fill="url(#paint24_linear_46_48)"/>
<rect x="880" y="0.000244141" width="40" height="787" fill="url(#paint25_linear_46_48)"/>
<rect x="920" y="0.000244141" width="40" height="787" fill="url(#paint26_linear_46_48)"/>
<rect x="960" y="0.000244141" width="40" height="787" fill="url(#paint27_linear_46_48)"/>
<rect x="1000" y="0.000244141" width="40" height="787" fill="url(#paint28_linear_46_48)"/>
<rect x="1040" y="0.000244141" width="40" height="787" fill="url(#paint29_linear_46_48)"/>
<rect x="1080" y="0.000244141" width="40" height="787" fill="url(#paint30_linear_46_48)"/>
<rect x="1120" y="0.000244141" width="40" height="787" fill="url(#paint31_linear_46_48)"/>
<rect x="1160" y="0.000244141" width="40" height="787" fill="url(#paint32_linear_46_48)"/>
<rect x="1200" y="0.000244141" width="40" height="787" fill="url(#paint33_linear_46_48)"/>
<rect x="1240" y="0.000244141" width="40" height="787" fill="url(#paint34_linear_46_48)"/>
<rect x="1280" y="0.000244141" width="40" height="787" fill="url(#paint35_linear_46_48)"/>
<rect x="1320" y="0.000244141" width="40" height="787" fill="url(#paint36_linear_46_48)"/>
<rect x="1360" y="0.000244141" width="40" height="787" fill="url(#paint37_linear_46_48)"/>
<rect x="1400" y="0.000244141" width="40" height="787" fill="url(#paint38_linear_46_48)"/>
</g>
</g>
<defs>
<filter id="filter0_f_46_48" x="-276.198" y="182.894" width="1234.79" height="797.543" filterUnits="userSpaceOnUse" color-interpolation-filters="sRGB">
<feFlood flood-opacity="0" result="BackgroundImageFix"/>
<feBlend mode="normal" in="SourceGraphic" in2="BackgroundImageFix" result="shape"/>
<feGaussianBlur stdDeviation="50" result="effect1_foregroundBlur_46_48"/>
</filter>
<filter id="filter1_f_46_48" x="789.846" y="-453.999" width="838.375" height="1340.22" filterUnits="userSpaceOnUse" color-interpolation-filters="sRGB">
<feFlood flood-opacity="0" result="BackgroundImageFix"/>
<feBlend mode="normal" in="SourceGraphic" in2="BackgroundImageFix" result="shape"/>
<feGaussianBlur stdDeviation="50" result="effect1_foregroundBlur_46_48"/>
</filter>
<filter id="filter2_f_46_48" x="-160.762" y="-253.271" width="734.491" height="643.02" filterUnits="userSpaceOnUse" color-interpolation-filters="sRGB">
<feFlood flood-opacity="0" result="BackgroundImageFix"/>
<feBlend mode="normal" in="SourceGraphic" in2="BackgroundImageFix" result="shape"/>
<feGaussianBlur stdDeviation="50" result="effect1_foregroundBlur_46_48"/>
</filter>
<linearGradient id="paint0_linear_46_48" x1="441.28" y1="370.489" x2="411.102" y2="868.288" gradientUnits="userSpaceOnUse">
<stop stop-color="#6823FF"/>
<stop offset="1" stop-color="white" stop-opacity="0"/>
</linearGradient>
<linearGradient id="paint1_linear_46_48" x1="1474.5" y1="542" x2="961.433" y2="-19.9497" gradientUnits="userSpaceOnUse">
<stop stop-color="#6823FF"/>
<stop offset="1" stop-color="white" stop-opacity="0"/>
</linearGradient>
<linearGradient id="paint2_linear_46_48" x1="204" y1="224.5" x2="143.162" y2="-124.031" gradientUnits="userSpaceOnUse">
<stop stop-color="#6823FF"/>
<stop offset="1" stop-color="white" stop-opacity="0"/>
</linearGradient>
<linearGradient id="paint3_linear_46_48" x1="0" y1="393.5" x2="40" y2="393.5" gradientUnits="userSpaceOnUse">
<stop stop-color="#D9D9D9"/>
<stop offset="1" stop-color="#737373"/>
</linearGradient>
<linearGradient id="paint4_linear_46_48" x1="40" y1="393.5" x2="80" y2="393.5" gradientUnits="userSpaceOnUse">
<stop stop-color="#D9D9D9"/>
<stop offset="1" stop-color="#737373"/>
</linearGradient>
<linearGradient id="paint5_linear_46_48" x1="80" y1="393.5" x2="120" y2="393.5" gradientUnits="userSpaceOnUse">
<stop stop-color="#D9D9D9"/>
<stop offset="1" stop-color="#737373"/>
</linearGradient>
<linearGradient id="paint6_linear_46_48" x1="120" y1="393.5" x2="160" y2="393.5" gradientUnits="userSpaceOnUse">
<stop stop-color="#D9D9D9"/>
<stop offset="1" stop-color="#737373"/>
</linearGradient>
<linearGradient id="paint7_linear_46_48" x1="160" y1="393.5" x2="200" y2="393.5" gradientUnits="userSpaceOnUse">
<stop stop-color="#D9D9D9"/>
<stop offset="1" stop-color="#737373"/>
</linearGradient>
<linearGradient id="paint8_linear_46_48" x1="200" y1="393.5" x2="240" y2="393.5" gradientUnits="userSpaceOnUse">
<stop stop-color="#D9D9D9"/>
<stop offset="1" stop-color="#737373"/>
</linearGradient>
<linearGradient id="paint9_linear_46_48" x1="240" y1="393.5" x2="280" y2="393.5" gradientUnits="userSpaceOnUse">
<stop stop-color="#D9D9D9"/>
<stop offset="1" stop-color="#737373"/>
</linearGradient>
<linearGradient id="paint10_linear_46_48" x1="280" y1="393.5" x2="320" y2="393.5" gradientUnits="userSpaceOnUse">
<stop stop-color="#D9D9D9"/>
<stop offset="1" stop-color="#737373"/>
</linearGradient>
<linearGradient id="paint11_linear_46_48" x1="320" y1="393.5" x2="360" y2="393.5" gradientUnits="userSpaceOnUse">
<stop stop-color="#D9D9D9"/>
<stop offset="1" stop-color="#737373"/>
</linearGradient>
<linearGradient id="paint12_linear_46_48" x1="360" y1="393.5" x2="400" y2="393.5" gradientUnits="userSpaceOnUse">
<stop stop-color="#D9D9D9"/>
<stop offset="1" stop-color="#737373"/>
</linearGradient>
<linearGradient id="paint13_linear_46_48" x1="400" y1="393.5" x2="440" y2="393.5" gradientUnits="userSpaceOnUse">
<stop stop-color="#D9D9D9"/>
<stop offset="1" stop-color="#737373"/>
</linearGradient>
<linearGradient id="paint14_linear_46_48" x1="440" y1="393.5" x2="480" y2="393.5" gradientUnits="userSpaceOnUse">
<stop stop-color="#D9D9D9"/>
<stop offset="1" stop-color="#737373"/>
</linearGradient>
<linearGradient id="paint15_linear_46_48" x1="480" y1="393.5" x2="520" y2="393.5" gradientUnits="userSpaceOnUse">
<stop stop-color="#D9D9D9"/>
<stop offset="1" stop-color="#737373"/>
</linearGradient>
<linearGradient id="paint16_linear_46_48" x1="520" y1="393.5" x2="560" y2="393.5" gradientUnits="userSpaceOnUse">
<stop stop-color="#D9D9D9"/>
<stop offset="1" stop-color="#737373"/>
</linearGradient>
<linearGradient id="paint17_linear_46_48" x1="560" y1="393.5" x2="600" y2="393.5" gradientUnits="userSpaceOnUse">
<stop stop-color="#D9D9D9"/>
<stop offset="1" stop-color="#737373"/>
</linearGradient>
<linearGradient id="paint18_linear_46_48" x1="600" y1="393.5" x2="640" y2="393.5" gradientUnits="userSpaceOnUse">
<stop stop-color="#D9D9D9"/>
<stop offset="1" stop-color="#737373"/>
</linearGradient>
<linearGradient id="paint19_linear_46_48" x1="640" y1="393.5" x2="680" y2="393.5" gradientUnits="userSpaceOnUse">
<stop stop-color="#D9D9D9"/>
<stop offset="1" stop-color="#737373"/>
</linearGradient>
<linearGradient id="paint20_linear_46_48" x1="680" y1="393.5" x2="720" y2="393.5" gradientUnits="userSpaceOnUse">
<stop stop-color="#D9D9D9"/>
<stop offset="1" stop-color="#737373"/>
</linearGradient>
<linearGradient id="paint21_linear_46_48" x1="720" y1="393.5" x2="760" y2="393.5" gradientUnits="userSpaceOnUse">
<stop stop-color="#D9D9D9"/>
<stop offset="1" stop-color="#737373"/>
</linearGradient>
<linearGradient id="paint22_linear_46_48" x1="760" y1="393.5" x2="800" y2="393.5" gradientUnits="userSpaceOnUse">
<stop stop-color="#D9D9D9"/>
<stop offset="1" stop-color="#737373"/>
</linearGradient>
<linearGradient id="paint23_linear_46_48" x1="800" y1="393.5" x2="840" y2="393.5" gradientUnits="userSpaceOnUse">
<stop stop-color="#D9D9D9"/>
<stop offset="1" stop-color="#737373"/>
</linearGradient>
<linearGradient id="paint24_linear_46_48" x1="840" y1="393.5" x2="880" y2="393.5" gradientUnits="userSpaceOnUse">
<stop stop-color="#D9D9D9"/>
<stop offset="1" stop-color="#737373"/>
</linearGradient>
<linearGradient id="paint25_linear_46_48" x1="880" y1="393.5" x2="920" y2="393.5" gradientUnits="userSpaceOnUse">
<stop stop-color="#D9D9D9"/>
<stop offset="1" stop-color="#737373"/>
</linearGradient>
<linearGradient id="paint26_linear_46_48" x1="920" y1="393.5" x2="960" y2="393.5" gradientUnits="userSpaceOnUse">
<stop stop-color="#D9D9D9"/>
<stop offset="1" stop-color="#737373"/>
</linearGradient>
<linearGradient id="paint27_linear_46_48" x1="960" y1="393.5" x2="1000" y2="393.5" gradientUnits="userSpaceOnUse">
<stop stop-color="#D9D9D9"/>
<stop offset="1" stop-color="#737373"/>
</linearGradient>
<linearGradient id="paint28_linear_46_48" x1="1000" y1="393.5" x2="1040" y2="393.5" gradientUnits="userSpaceOnUse">
<stop stop-color="#D9D9D9"/>
<stop offset="1" stop-color="#737373"/>
</linearGradient>
<linearGradient id="paint29_linear_46_48" x1="1040" y1="393.5" x2="1080" y2="393.5" gradientUnits="userSpaceOnUse">
<stop stop-color="#D9D9D9"/>
<stop offset="1" stop-color="#737373"/>
</linearGradient>
<linearGradient id="paint30_linear_46_48" x1="1080" y1="393.5" x2="1120" y2="393.5" gradientUnits="userSpaceOnUse">
<stop stop-color="#D9D9D9"/>
<stop offset="1" stop-color="#737373"/>
</linearGradient>
<linearGradient id="paint31_linear_46_48" x1="1120" y1="393.5" x2="1160" y2="393.5" gradientUnits="userSpaceOnUse">
<stop stop-color="#D9D9D9"/>
<stop offset="1" stop-color="#737373"/>
</linearGradient>
<linearGradient id="paint32_linear_46_48" x1="1160" y1="393.5" x2="1200" y2="393.5" gradientUnits="userSpaceOnUse">
<stop stop-color="#D9D9D9"/>
<stop offset="1" stop-color="#737373"/>
</linearGradient>
<linearGradient id="paint33_linear_46_48" x1="1200" y1="393.5" x2="1240" y2="393.5" gradientUnits="userSpaceOnUse">
<stop stop-color="#D9D9D9"/>
<stop offset="1" stop-color="#737373"/>
</linearGradient>
<linearGradient id="paint34_linear_46_48" x1="1240" y1="393.5" x2="1280" y2="393.5" gradientUnits="userSpaceOnUse">
<stop stop-color="#D9D9D9"/>
<stop offset="1" stop-color="#737373"/>
</linearGradient>
<linearGradient id="paint35_linear_46_48" x1="1280" y1="393.5" x2="1320" y2="393.5" gradientUnits="userSpaceOnUse">
<stop stop-color="#D9D9D9"/>
<stop offset="1" stop-color="#737373"/>
</linearGradient>
<linearGradient id="paint36_linear_46_48" x1="1320" y1="393.5" x2="1360" y2="393.5" gradientUnits="userSpaceOnUse">
<stop stop-color="#D9D9D9"/>
<stop offset="1" stop-color="#737373"/>
</linearGradient>
<linearGradient id="paint37_linear_46_48" x1="1360" y1="393.5" x2="1400" y2="393.5" gradientUnits="userSpaceOnUse">
<stop stop-color="#D9D9D9"/>
<stop offset="1" stop-color="#737373"/>
</linearGradient>
<linearGradient id="paint38_linear_46_48" x1="1400" y1="393.5" x2="1440" y2="393.5" gradientUnits="userSpaceOnUse">
<stop stop-color="#D9D9D9"/>
<stop offset="1" stop-color="#737373"/>
</linearGradient>
<clipPath id="clip0_46_48">
<rect width="1440" height="787" fill="white"/>
</clipPath>
</defs>
</svg>
