<svg width="768" height="852" viewBox="0 0 768 852" fill="none" xmlns="http://www.w3.org/2000/svg">
<g clip-path="url(#clip0_50_53)">
<rect width="768" height="852" fill="black"/>
<g filter="url(#filter0_f_50_53)">
<path fill-rule="evenodd" clip-rule="evenodd" d="M-185.648 333.305C-126.373 307.275 -61.6247 299.088 3.61113 295.542C103.57 290.109 224.18 254.854 294.887 307.186C362.98 357.583 368.332 460.616 323.981 532.654C279.263 605.288 143.914 602.636 75.7669 663.093C29.5266 704.115 56.0856 775.211 6.9135 813.94C-45.8402 855.49 -121.836 868.375 -192.485 874.373C-271.849 881.111 -347.829 870.913 -420.62 850.238C-516.929 822.883 -686.79 820.399 -682.103 735.305C-676.532 634.152 -494.925 598.451 -402.666 524.259C-365.524 494.39 -337.757 461.073 -302.314 429.886C-263.879 396.067 -235.165 355.05 -185.648 333.305Z" fill="url(#paint0_linear_50_53)"/>
</g>
<g filter="url(#filter1_f_50_53)">
<path fill-rule="evenodd" clip-rule="evenodd" d="M993.796 385.038C973.873 452.843 932.579 510.096 886.438 563.875C815.736 646.28 758.114 769.54 653.912 781.184C553.563 792.397 450.104 711.012 414.306 616.634C378.213 521.474 483.6 418.205 477.053 314.901C472.611 244.804 383.849 206.464 383.846 135.988C383.843 60.3779 429.15 -9.54148 477.039 -69.5749C530.834 -137.014 598.397 -187.754 673.644 -227.309C773.202 -279.642 904.648 -409.944 983.175 -335.632C1076.52 -247.297 972.987 -76.1345 974.466 57.3652C975.061 111.109 986.105 160.412 989.262 213.928C992.686 271.961 1010.44 328.396 993.796 385.038Z" fill="url(#paint1_linear_50_53)"/>
</g>
<g filter="url(#filter2_f_50_53)">
<path fill-rule="evenodd" clip-rule="evenodd" d="M-241.978 201.592C-270.7 225.45 -305.634 238.662 -341.659 248.988C-396.859 264.81 -458.415 302.116 -507.343 277.657C-554.461 254.103 -575.591 189.376 -563.345 138.167C-550.999 86.5345 -474.496 71.4617 -446.845 24.657C-428.084 -7.10171 -455.509 -48.9346 -434.697 -79.6009C-412.369 -112.501 -371.942 -130.086 -333.308 -142.639C-289.907 -156.74 -245.429 -159.674 -200.898 -155.564C-141.982 -150.126 -46.1193 -169.577 -33.7848 -114.993C-19.1226 -50.1073 -114.868 -4.96783 -153.648 53.5392C-169.259 77.0929 -178.998 101.675 -193.425 125.855C-209.069 152.076 -217.985 181.662 -241.978 201.592Z" fill="url(#paint2_linear_50_53)"/>
</g>
<g style="mix-blend-mode:color-burn">
<rect x="-26" y="-3.99976" width="40" height="851" fill="url(#paint3_linear_50_53)"/>
<rect x="14" y="-3.99976" width="40" height="851" fill="url(#paint4_linear_50_53)"/>
<rect x="54" y="-3.99976" width="40" height="851" fill="url(#paint5_linear_50_53)"/>
<rect x="94" y="-3.99976" width="40" height="851" fill="url(#paint6_linear_50_53)"/>
<rect x="134" y="-3.99976" width="40" height="851" fill="url(#paint7_linear_50_53)"/>
<rect x="174" y="-3.99976" width="40" height="851" fill="url(#paint8_linear_50_53)"/>
<rect x="214" y="-3.99976" width="40" height="851" fill="url(#paint9_linear_50_53)"/>
<rect x="254" y="-3.99976" width="40" height="851" fill="url(#paint10_linear_50_53)"/>
<rect x="294" y="-3.99976" width="40" height="851" fill="url(#paint11_linear_50_53)"/>
<rect x="334" y="-3.99976" width="40" height="851" fill="url(#paint12_linear_50_53)"/>
<rect x="374" y="-3.99976" width="40" height="851" fill="url(#paint13_linear_50_53)"/>
<rect x="414" y="-3.99976" width="40" height="851" fill="url(#paint14_linear_50_53)"/>
<rect x="454" y="-3.99976" width="40" height="851" fill="url(#paint15_linear_50_53)"/>
<rect x="494" y="-3.99976" width="40" height="851" fill="url(#paint16_linear_50_53)"/>
<rect x="534" y="-3.99976" width="40" height="851" fill="url(#paint17_linear_50_53)"/>
<rect x="574" y="-3.99976" width="40" height="851" fill="url(#paint18_linear_50_53)"/>
<rect x="614" y="-3.99976" width="40" height="851" fill="url(#paint19_linear_50_53)"/>
<rect x="654" y="-3.99976" width="40" height="851" fill="url(#paint20_linear_50_53)"/>
<rect x="694" y="-3.99976" width="40" height="851" fill="url(#paint21_linear_50_53)"/>
<rect x="734" y="-3.99976" width="40" height="851" fill="url(#paint22_linear_50_53)"/>
</g>
</g>
<defs>
<filter id="filter0_f_50_53" x="-782.198" y="178.894" width="1234.79" height="797.543" filterUnits="userSpaceOnUse" color-interpolation-filters="sRGB">
<feFlood flood-opacity="0" result="BackgroundImageFix"/>
<feBlend mode="normal" in="SourceGraphic" in2="BackgroundImageFix" result="shape"/>
<feGaussianBlur stdDeviation="50" result="effect1_foregroundBlur_50_53"/>
</filter>
<filter id="filter1_f_50_53" x="283.846" y="-457.999" width="838.374" height="1340.22" filterUnits="userSpaceOnUse" color-interpolation-filters="sRGB">
<feFlood flood-opacity="0" result="BackgroundImageFix"/>
<feBlend mode="normal" in="SourceGraphic" in2="BackgroundImageFix" result="shape"/>
<feGaussianBlur stdDeviation="50" result="effect1_foregroundBlur_50_53"/>
</filter>
<filter id="filter2_f_50_53" x="-666.762" y="-257.271" width="734.491" height="643.02" filterUnits="userSpaceOnUse" color-interpolation-filters="sRGB">
<feFlood flood-opacity="0" result="BackgroundImageFix"/>
<feBlend mode="normal" in="SourceGraphic" in2="BackgroundImageFix" result="shape"/>
<feGaussianBlur stdDeviation="50" result="effect1_foregroundBlur_50_53"/>
</filter>
<linearGradient id="paint0_linear_50_53" x1="-64.7197" y1="366.489" x2="-94.8984" y2="864.288" gradientUnits="userSpaceOnUse">
<stop stop-color="#6823FF"/>
<stop offset="1" stop-color="white" stop-opacity="0"/>
</linearGradient>
<linearGradient id="paint1_linear_50_53" x1="968.5" y1="538" x2="455.433" y2="-23.9497" gradientUnits="userSpaceOnUse">
<stop stop-color="#6823FF"/>
<stop offset="1" stop-color="white" stop-opacity="0"/>
</linearGradient>
<linearGradient id="paint2_linear_50_53" x1="-302" y1="220.5" x2="-362.838" y2="-128.031" gradientUnits="userSpaceOnUse">
<stop stop-color="#6823FF"/>
<stop offset="1" stop-color="white" stop-opacity="0"/>
</linearGradient>
<linearGradient id="paint3_linear_50_53" x1="-26" y1="421.5" x2="14" y2="421.5" gradientUnits="userSpaceOnUse">
<stop stop-color="#D9D9D9"/>
<stop offset="1" stop-color="#737373"/>
</linearGradient>
<linearGradient id="paint4_linear_50_53" x1="14" y1="421.5" x2="54" y2="421.5" gradientUnits="userSpaceOnUse">
<stop stop-color="#D9D9D9"/>
<stop offset="1" stop-color="#737373"/>
</linearGradient>
<linearGradient id="paint5_linear_50_53" x1="54" y1="421.5" x2="94" y2="421.5" gradientUnits="userSpaceOnUse">
<stop stop-color="#D9D9D9"/>
<stop offset="1" stop-color="#737373"/>
</linearGradient>
<linearGradient id="paint6_linear_50_53" x1="94" y1="421.5" x2="134" y2="421.5" gradientUnits="userSpaceOnUse">
<stop stop-color="#D9D9D9"/>
<stop offset="1" stop-color="#737373"/>
</linearGradient>
<linearGradient id="paint7_linear_50_53" x1="134" y1="421.5" x2="174" y2="421.5" gradientUnits="userSpaceOnUse">
<stop stop-color="#D9D9D9"/>
<stop offset="1" stop-color="#737373"/>
</linearGradient>
<linearGradient id="paint8_linear_50_53" x1="174" y1="421.5" x2="214" y2="421.5" gradientUnits="userSpaceOnUse">
<stop stop-color="#D9D9D9"/>
<stop offset="1" stop-color="#737373"/>
</linearGradient>
<linearGradient id="paint9_linear_50_53" x1="214" y1="421.5" x2="254" y2="421.5" gradientUnits="userSpaceOnUse">
<stop stop-color="#D9D9D9"/>
<stop offset="1" stop-color="#737373"/>
</linearGradient>
<linearGradient id="paint10_linear_50_53" x1="254" y1="421.5" x2="294" y2="421.5" gradientUnits="userSpaceOnUse">
<stop stop-color="#D9D9D9"/>
<stop offset="1" stop-color="#737373"/>
</linearGradient>
<linearGradient id="paint11_linear_50_53" x1="294" y1="421.5" x2="334" y2="421.5" gradientUnits="userSpaceOnUse">
<stop stop-color="#D9D9D9"/>
<stop offset="1" stop-color="#737373"/>
</linearGradient>
<linearGradient id="paint12_linear_50_53" x1="334" y1="421.5" x2="374" y2="421.5" gradientUnits="userSpaceOnUse">
<stop stop-color="#D9D9D9"/>
<stop offset="1" stop-color="#737373"/>
</linearGradient>
<linearGradient id="paint13_linear_50_53" x1="374" y1="421.5" x2="414" y2="421.5" gradientUnits="userSpaceOnUse">
<stop stop-color="#D9D9D9"/>
<stop offset="1" stop-color="#737373"/>
</linearGradient>
<linearGradient id="paint14_linear_50_53" x1="414" y1="421.5" x2="454" y2="421.5" gradientUnits="userSpaceOnUse">
<stop stop-color="#D9D9D9"/>
<stop offset="1" stop-color="#737373"/>
</linearGradient>
<linearGradient id="paint15_linear_50_53" x1="454" y1="421.5" x2="494" y2="421.5" gradientUnits="userSpaceOnUse">
<stop stop-color="#D9D9D9"/>
<stop offset="1" stop-color="#737373"/>
</linearGradient>
<linearGradient id="paint16_linear_50_53" x1="494" y1="421.5" x2="534" y2="421.5" gradientUnits="userSpaceOnUse">
<stop stop-color="#D9D9D9"/>
<stop offset="1" stop-color="#737373"/>
</linearGradient>
<linearGradient id="paint17_linear_50_53" x1="534" y1="421.5" x2="574" y2="421.5" gradientUnits="userSpaceOnUse">
<stop stop-color="#D9D9D9"/>
<stop offset="1" stop-color="#737373"/>
</linearGradient>
<linearGradient id="paint18_linear_50_53" x1="574" y1="421.5" x2="614" y2="421.5" gradientUnits="userSpaceOnUse">
<stop stop-color="#D9D9D9"/>
<stop offset="1" stop-color="#737373"/>
</linearGradient>
<linearGradient id="paint19_linear_50_53" x1="614" y1="421.5" x2="654" y2="421.5" gradientUnits="userSpaceOnUse">
<stop stop-color="#D9D9D9"/>
<stop offset="1" stop-color="#737373"/>
</linearGradient>
<linearGradient id="paint20_linear_50_53" x1="654" y1="421.5" x2="694" y2="421.5" gradientUnits="userSpaceOnUse">
<stop stop-color="#D9D9D9"/>
<stop offset="1" stop-color="#737373"/>
</linearGradient>
<linearGradient id="paint21_linear_50_53" x1="694" y1="421.5" x2="734" y2="421.5" gradientUnits="userSpaceOnUse">
<stop stop-color="#D9D9D9"/>
<stop offset="1" stop-color="#737373"/>
</linearGradient>
<linearGradient id="paint22_linear_50_53" x1="734" y1="421.5" x2="774" y2="421.5" gradientUnits="userSpaceOnUse">
<stop stop-color="#D9D9D9"/>
<stop offset="1" stop-color="#737373"/>
</linearGradient>
<clipPath id="clip0_50_53">
<rect width="768" height="852" fill="white"/>
</clipPath>
</defs>
</svg>
