<svg width="41" height="42" viewBox="0 0 41 42" fill="none" xmlns="http://www.w3.org/2000/svg">
<path d="M34.1588 2.90325L1.90327 35.1587C0.852125 36.2099 0.91715 37.9792 2.04851 39.1105L2.26414 39.3262C3.3955 40.4575 5.16478 40.5225 6.21592 39.4714L38.4714 7.2159C39.5226 6.16475 39.4575 4.39547 38.3262 3.26411L38.1105 3.04848C36.9792 1.91712 35.2099 1.8521 34.1588 2.90325Z" fill="white"/>
<path d="M38.7838 35.0208L6.52827 2.76533C5.47712 1.71419 3.70785 1.77921 2.57649 2.91057L2.36086 3.1262C1.2295 4.25756 1.16447 6.02684 2.21562 7.07799L34.4711 39.3335C35.5223 40.3846 37.2915 40.3196 38.4229 39.1882L38.6385 38.9726C39.7699 37.8412 39.8349 36.072 38.7838 35.0208Z" fill="white"/>
</svg>
