<svg width="1440" height="318" viewBox="0 0 1440 318" fill="none" xmlns="http://www.w3.org/2000/svg">
<g clip-path="url(#clip0_15_210)">
<rect width="1440" height="318" fill="white"/>
<g filter="url(#filter0_f_15_210)">
<path fill-rule="evenodd" clip-rule="evenodd" d="M342.144 222.511C313.423 246.369 278.488 259.58 242.463 269.906C187.263 285.729 125.707 323.034 76.7793 298.576C29.661 275.021 8.53153 210.294 20.7766 159.086C33.123 107.453 109.627 92.3804 137.277 45.5757C156.039 13.817 128.613 -28.0159 149.425 -58.6822C171.753 -91.5822 212.18 -109.168 250.815 -121.72C294.215 -135.821 338.694 -138.755 383.224 -134.645C442.14 -129.207 538.003 -148.659 550.337 -94.0742C564.999 -29.1886 469.254 15.9509 430.475 74.4579C414.863 98.0116 405.124 122.593 390.697 146.774C375.054 172.995 366.137 202.581 342.144 222.511Z" fill="url(#paint0_linear_15_210)"/>
</g>
<g filter="url(#filter1_f_15_210)">
<path fill-rule="evenodd" clip-rule="evenodd" d="M1380.14 326.511C1351.42 350.369 1316.49 363.58 1280.46 373.906C1225.26 389.729 1163.71 427.034 1114.78 402.576C1067.66 379.021 1046.53 314.294 1058.78 263.086C1071.12 211.453 1147.63 196.38 1175.28 149.576C1194.04 117.817 1166.61 75.9841 1187.42 45.3178C1209.75 12.4178 1250.18 -5.1676 1288.81 -17.7202C1332.21 -31.8214 1376.69 -34.7554 1421.22 -30.6452C1480.14 -25.2072 1576 -44.6588 1588.34 9.9258C1603 74.8114 1507.25 119.951 1468.47 178.458C1452.86 202.012 1443.12 226.593 1428.7 250.774C1413.05 276.995 1404.14 306.581 1380.14 326.511Z" fill="url(#paint1_linear_15_210)"/>
</g>
</g>
<defs>
<filter id="filter0_f_15_210" x="-82.64" y="-236.353" width="734.491" height="643.019" filterUnits="userSpaceOnUse" color-interpolation-filters="sRGB">
<feFlood flood-opacity="0" result="BackgroundImageFix"/>
<feBlend mode="normal" in="SourceGraphic" in2="BackgroundImageFix" result="shape"/>
<feGaussianBlur stdDeviation="50" result="effect1_foregroundBlur_15_210"/>
</filter>
<filter id="filter1_f_15_210" x="955.36" y="-132.353" width="734.491" height="643.019" filterUnits="userSpaceOnUse" color-interpolation-filters="sRGB">
<feFlood flood-opacity="0" result="BackgroundImageFix"/>
<feBlend mode="normal" in="SourceGraphic" in2="BackgroundImageFix" result="shape"/>
<feGaussianBlur stdDeviation="50" result="effect1_foregroundBlur_15_210"/>
</filter>
<linearGradient id="paint0_linear_15_210" x1="282.122" y1="241.419" x2="221.284" y2="-107.112" gradientUnits="userSpaceOnUse">
<stop stop-color="#6823FF"/>
<stop offset="1" stop-color="white" stop-opacity="0"/>
</linearGradient>
<linearGradient id="paint1_linear_15_210" x1="1320.12" y1="345.419" x2="1259.28" y2="-3.11194" gradientUnits="userSpaceOnUse">
<stop stop-color="#6823FF"/>
<stop offset="1" stop-color="white" stop-opacity="0"/>
</linearGradient>
<clipPath id="clip0_15_210">
<rect width="1440" height="318" fill="white"/>
</clipPath>
</defs>
</svg>
